999
"DXF R12 Output" (www.mydxf.blogspot.com)
 0 
SECTION
 2 
HEADER
 9 
$ACADVER
 1 
AC1009
 9 
$EXTMIN
 10 
 0 
 20 
 0 
 9 
$EXTMAX
 10 
 8.5 
 20 
 11 
 0 
ENDSEC
 0 
SECTION
 2 
ENTITIES
0
POLYLINE
8
Layer 1
62
7
70
1
10
0.000000
20
0.000000
66
1
0
VERTEX
8
Layer 1
10
0.000000
20
37.041700
70
0
0
VERTEX
8
Layer 1
10
5.027077
20
37.041700
70
0
0
VERTEX
8
Layer 1
10
5.027077
20
39.687530
70
0
0
VERTEX
8
Layer 1
10
8.202073
20
39.687530
70
0
0
VERTEX
8
Layer 1
10
8.202073
20
37.041700
70
0
0
VERTEX
8
Layer 1
10
12.964567
20
37.041700
70
0
0
VERTEX
8
Layer 1
10
12.964567
20
39.687530
70
0
0
VERTEX
8
Layer 1
10
16.139563
20
39.687530
70
0
0
VERTEX
8
Layer 1
10
16.139563
20
37.041700
70
0
0
VERTEX
8
Layer 1
10
20.902057
20
37.041700
70
0
0
VERTEX
8
Layer 1
10
20.902057
20
39.687530
70
0
0
VERTEX
8
Layer 1
10
24.077053
20
39.687530
70
0
0
VERTEX
8
Layer 1
10
24.077053
20
37.041700
70
0
0
VERTEX
8
Layer 1
10
28.839547
20
37.041700
70
0
0
VERTEX
8
Layer 1
10
28.839547
20
39.687530
70
0
0
VERTEX
8
Layer 1
10
32.014543
20
39.687530
70
0
0
VERTEX
8
Layer 1
10
32.014543
20
37.041700
70
0
0
VERTEX
8
Layer 1
10
36.777037
20
37.041700
70
0
0
VERTEX
8
Layer 1
10
36.777037
20
39.687530
70
0
0
VERTEX
8
Layer 1
10
39.952033
20
39.687530
70
0
0
VERTEX
8
Layer 1
10
39.952033
20
37.041700
70
0
0
VERTEX
8
Layer 1
10
44.714527
20
37.041700
70
0
0
VERTEX
8
Layer 1
10
44.714527
20
39.687530
70
0
0
VERTEX
8
Layer 1
10
47.889523
20
39.687530
70
0
0
VERTEX
8
Layer 1
10
47.889523
20
37.041700
70
0
0
VERTEX
8
Layer 1
10
52.916600
20
37.041700
70
0
0
VERTEX
8
Layer 1
10
52.916600
20
33.337538
70
0
0
VERTEX
8
Layer 1
10
55.562430
20
33.337538
70
0
0
VERTEX
8
Layer 1
10
55.562430
20
30.162542
70
0
0
VERTEX
8
Layer 1
10
52.916600
20
30.162542
70
0
0
VERTEX
8
Layer 1
10
52.916600
20
25.400048
70
0
0
VERTEX
8
Layer 1
10
55.562430
20
25.400048
70
0
0
VERTEX
8
Layer 1
10
55.562430
20
22.225052
70
0
0
VERTEX
8
Layer 1
10
52.916600
20
22.225052
70
0
0
VERTEX
8
Layer 1
10
52.916600
20
17.462558
70
0
0
VERTEX
8
Layer 1
10
55.562430
20
17.462558
70
0
0
VERTEX
8
Layer 1
10
55.562430
20
14.287562
70
0
0
VERTEX
8
Layer 1
10
52.916600
20
14.287562
70
0
0
VERTEX
8
Layer 1
10
52.916600
20
10.583400
70
0
0
VERTEX
8
Layer 1
10
47.889523
20
10.583400
70
0
0
VERTEX
8
Layer 1
10
47.889523
20
7.937570
70
0
0
VERTEX
8
Layer 1
10
44.714527
20
7.937570
70
0
0
VERTEX
8
Layer 1
10
44.714527
20
10.583400
70
0
0
VERTEX
8
Layer 1
10
39.952033
20
10.583400
70
0
0
VERTEX
8
Layer 1
10
39.952033
20
7.937570
70
0
0
VERTEX
8
Layer 1
10
36.777037
20
7.937570
70
0
0
VERTEX
8
Layer 1
10
36.777037
20
10.583400
70
0
0
VERTEX
8
Layer 1
10
32.014543
20
10.583400
70
0
0
VERTEX
8
Layer 1
10
32.014543
20
7.937570
70
0
0
VERTEX
8
Layer 1
10
28.839547
20
7.937570
70
0
0
VERTEX
8
Layer 1
10
28.839547
20
10.583400
70
0
0
VERTEX
8
Layer 1
10
24.077053
20
10.583400
70
0
0
VERTEX
8
Layer 1
10
24.077053
20
7.937570
70
0
0
VERTEX
8
Layer 1
10
20.902057
20
7.937570
70
0
0
VERTEX
8
Layer 1
10
20.902057
20
10.583400
70
0
0
VERTEX
8
Layer 1
10
16.139563
20
10.583400
70
0
0
VERTEX
8
Layer 1
10
16.139563
20
7.937570
70
0
0
VERTEX
8
Layer 1
10
12.964567
20
7.937570
70
0
0
VERTEX
8
Layer 1
10
12.964567
20
10.583400
70
0
0
VERTEX
8
Layer 1
10
8.202073
20
10.583400
70
0
0
VERTEX
8
Layer 1
10
8.202073
20
7.937570
70
0
0
VERTEX
8
Layer 1
10
5.027077
20
7.937570
70
0
0
VERTEX
8
Layer 1
10
5.027077
20
10.583400
70
0
0
VERTEX
8
Layer 1
10
0.000000
20
10.583400
70
0
0
VERTEX
8
Layer 1
10
0.000000
20
14.287562
70
0
0
VERTEX
8
Layer 1
10
-2.645830
20
14.287562
70
0
0
VERTEX
8
Layer 1
10
-2.645830
20
17.462558
70
0
0
VERTEX
8
Layer 1
10
0.000000
20
17.462558
70
0
0
VERTEX
8
Layer 1
10
0.000000
20
22.225052
70
0
0
VERTEX
8
Layer 1
10
-2.645830
20
22.225052
70
0
0
VERTEX
8
Layer 1
10
-2.645830
20
25.400048
70
0
0
VERTEX
8
Layer 1
10
0.000000
20
25.400048
70
0
0
VERTEX
8
Layer 1
10
0.000000
20
30.162542
70
0
0
VERTEX
8
Layer 1
10
-2.645830
20
30.162542
70
0
0
VERTEX
8
Layer 1
10
-2.645830
20
33.337538
70
0
0
VERTEX
8
Layer 1
10
0.000000
20
33.337538
70
0
0
VERTEX
8
Layer 1
10
0.000000
20
37.041700
70
0
0
VERTEX
8
Layer 1
10
0.000000
20
37.041700
70
0
0
SEQEND
8
Layer 1
 0 
ENDSEC
 0 
EOF