999
"DXF R12 Output" (www.mydxf.blogspot.com)
 0 
SECTION
 2 
HEADER
 9 
$ACADVER
 1 
AC1009
 9 
$EXTMIN
 10 
 0 
 20 
 0 
 9 
$EXTMAX
 10 
 8.5 
 20 
 11 
 0 
ENDSEC
 0 
SECTION
 2 
ENTITIES
0
POLYLINE
8
Layer 1
62
7
70
1
10
0.000000
20
0.000000
66
1
0
VERTEX
8
Layer 1
10
0.000000
20
25.135400
70
0
0
VERTEX
8
Layer 1
10
26.458300
20
25.135400
70
0
0
VERTEX
8
Layer 1
10
26.458300
20
21.960404
70
0
0
VERTEX
8
Layer 1
10
29.104130
20
21.960404
70
0
0
VERTEX
8
Layer 1
10
29.104130
20
18.785408
70
0
0
VERTEX
8
Layer 1
10
26.458300
20
18.785408
70
0
0
VERTEX
8
Layer 1
10
26.458300
20
11.906250
70
0
0
VERTEX
8
Layer 1
10
29.104130
20
11.906250
70
0
0
VERTEX
8
Layer 1
10
29.104130
20
8.731254
70
0
0
VERTEX
8
Layer 1
10
26.458300
20
8.731254
70
0
0
VERTEX
8
Layer 1
10
26.458300
20
3.968760
70
0
0
VERTEX
8
Layer 1
10
0.000000
20
3.968760
70
0
0
VERTEX
8
Layer 1
10
0.000000
20
8.731254
70
0
0
VERTEX
8
Layer 1
10
-2.645830
20
8.731254
70
0
0
VERTEX
8
Layer 1
10
-2.645830
20
11.906250
70
0
0
VERTEX
8
Layer 1
10
0.000000
20
11.906250
70
0
0
VERTEX
8
Layer 1
10
0.000000
20
18.785408
70
0
0
VERTEX
8
Layer 1
10
-2.645830
20
18.785408
70
0
0
VERTEX
8
Layer 1
10
-2.645830
20
21.960404
70
0
0
VERTEX
8
Layer 1
10
0.000000
20
21.960404
70
0
0
VERTEX
8
Layer 1
10
0.000000
20
25.135400
70
0
0
SEQEND
8
Layer 1
0
POLYLINE
8
Layer 1
62
10
70
0
10
0.000000
20
0.000000
66
1
0
VERTEX
8
Layer 1
10
3.704162
20
5.556258
70
0
0
VERTEX
8
Layer 1
10
6.879158
20
5.556258
70
0
0
VERTEX
8
Layer 1
10
6.879158
20
4.762509
70
0
0
VERTEX
8
Layer 1
10
3.704162
20
4.762509
70
0
0
VERTEX
8
Layer 1
10
3.704162
20
5.556258
70
0
0
SEQEND
8
Layer 1
0
POLYLINE
8
Layer 1
62
10
70
0
10
0.000000
20
0.000000
66
1
0
VERTEX
8
Layer 1
10
11.641652
20
5.556258
70
0
0
VERTEX
8
Layer 1
10
14.816648
20
5.556258
70
0
0
VERTEX
8
Layer 1
10
14.816648
20
4.762509
70
0
0
VERTEX
8
Layer 1
10
11.641652
20
4.762509
70
0
0
VERTEX
8
Layer 1
10
11.641652
20
5.556258
70
0
0
SEQEND
8
Layer 1
0
POLYLINE
8
Layer 1
62
10
70
0
10
0.000000
20
0.000000
66
1
0
VERTEX
8
Layer 1
10
19.579142
20
5.556258
70
0
0
VERTEX
8
Layer 1
10
22.754138
20
5.556258
70
0
0
VERTEX
8
Layer 1
10
22.754138
20
4.762509
70
0
0
VERTEX
8
Layer 1
10
19.579142
20
4.762509
70
0
0
VERTEX
8
Layer 1
10
19.579142
20
5.556258
70
0
0
SEQEND
8
Layer 1
 0 
ENDSEC
 0 
EOF