999
"DXF R12 Output" (www.mydxf.blogspot.com)
 0 
SECTION
 2 
HEADER
 9 
$ACADVER
 1 
AC1009
 9 
$EXTMIN
 10 
 0 
 20 
 0 
 9 
$EXTMAX
 10 
 8.5 
 20 
 11 
 0 
ENDSEC
 0 
SECTION
 2 
ENTITIES
0
POLYLINE
8
Layer 1
62
7
70
0
10
0.000000
20
0.000000
66
1
0
VERTEX
8
Layer 1
10
0.000000
20
25.135400
70
0
0
VERTEX
8
Layer 1
10
56.091596
20
25.135400
70
0
0
VERTEX
8
Layer 1
10
56.091596
20
3.968760
70
0
0
VERTEX
8
Layer 1
10
0.000000
20
3.968760
70
0
0
VERTEX
8
Layer 1
10
0.000000
20
25.135400
70
0
0
SEQEND
8
Layer 1
0
POLYLINE
8
Layer 1
62
10
70
0
10
0.000000
20
0.000000
66
1
0
VERTEX
8
Layer 1
10
0.793749
20
21.960404
70
0
0
VERTEX
8
Layer 1
10
1.587498
20
21.960404
70
0
0
VERTEX
8
Layer 1
10
1.587498
20
18.785408
70
0
0
VERTEX
8
Layer 1
10
0.793749
20
18.785408
70
0
0
VERTEX
8
Layer 1
10
0.793749
20
21.960404
70
0
0
SEQEND
8
Layer 1
0
POLYLINE
8
Layer 1
62
10
70
0
10
0.000000
20
0.000000
66
1
0
VERTEX
8
Layer 1
10
0.793749
20
11.906250
70
0
0
VERTEX
8
Layer 1
10
1.587498
20
11.906250
70
0
0
VERTEX
8
Layer 1
10
1.587498
20
8.731254
70
0
0
VERTEX
8
Layer 1
10
0.793749
20
8.731254
70
0
0
VERTEX
8
Layer 1
10
0.793749
20
11.906250
70
0
0
SEQEND
8
Layer 1
0
POLYLINE
8
Layer 1
62
10
70
0
10
0.000000
20
0.000000
66
1
0
VERTEX
8
Layer 1
10
54.504098
20
21.960404
70
0
0
VERTEX
8
Layer 1
10
55.297847
20
21.960404
70
0
0
VERTEX
8
Layer 1
10
55.297847
20
18.785408
70
0
0
VERTEX
8
Layer 1
10
54.504098
20
18.785408
70
0
0
VERTEX
8
Layer 1
10
54.504098
20
21.960404
70
0
0
SEQEND
8
Layer 1
0
POLYLINE
8
Layer 1
62
10
70
0
10
0.000000
20
0.000000
66
1
0
VERTEX
8
Layer 1
10
54.504098
20
11.906250
70
0
0
VERTEX
8
Layer 1
10
55.297847
20
11.906250
70
0
0
VERTEX
8
Layer 1
10
55.297847
20
8.731254
70
0
0
VERTEX
8
Layer 1
10
54.504098
20
8.731254
70
0
0
VERTEX
8
Layer 1
10
54.504098
20
11.906250
70
0
0
SEQEND
8
Layer 1
0
POLYLINE
8
Layer 1
62
10
70
0
10
0.000000
20
0.000000
66
1
0
VERTEX
8
Layer 1
10
6.614575
20
5.556258
70
0
0
VERTEX
8
Layer 1
10
9.789571
20
5.556258
70
0
0
VERTEX
8
Layer 1
10
9.789571
20
4.762509
70
0
0
VERTEX
8
Layer 1
10
6.614575
20
4.762509
70
0
0
VERTEX
8
Layer 1
10
6.614575
20
5.556258
70
0
0
SEQEND
8
Layer 1
0
POLYLINE
8
Layer 1
62
10
70
0
10
0.000000
20
0.000000
66
1
0
VERTEX
8
Layer 1
10
14.552065
20
5.556258
70
0
0
VERTEX
8
Layer 1
10
17.727061
20
5.556258
70
0
0
VERTEX
8
Layer 1
10
17.727061
20
4.762509
70
0
0
VERTEX
8
Layer 1
10
14.552065
20
4.762509
70
0
0
VERTEX
8
Layer 1
10
14.552065
20
5.556258
70
0
0
SEQEND
8
Layer 1
0
POLYLINE
8
Layer 1
62
10
70
0
10
0.000000
20
0.000000
66
1
0
VERTEX
8
Layer 1
10
22.489555
20
5.556258
70
0
0
VERTEX
8
Layer 1
10
25.664551
20
5.556258
70
0
0
VERTEX
8
Layer 1
10
25.664551
20
4.762509
70
0
0
VERTEX
8
Layer 1
10
22.489555
20
4.762509
70
0
0
VERTEX
8
Layer 1
10
22.489555
20
5.556258
70
0
0
SEQEND
8
Layer 1
0
POLYLINE
8
Layer 1
62
10
70
0
10
0.000000
20
0.000000
66
1
0
VERTEX
8
Layer 1
10
30.427045
20
5.556258
70
0
0
VERTEX
8
Layer 1
10
33.602041
20
5.556258
70
0
0
VERTEX
8
Layer 1
10
33.602041
20
4.762509
70
0
0
VERTEX
8
Layer 1
10
30.427045
20
4.762509
70
0
0
VERTEX
8
Layer 1
10
30.427045
20
5.556258
70
0
0
SEQEND
8
Layer 1
0
POLYLINE
8
Layer 1
62
10
70
0
10
0.000000
20
0.000000
66
1
0
VERTEX
8
Layer 1
10
38.364535
20
5.556258
70
0
0
VERTEX
8
Layer 1
10
41.539531
20
5.556258
70
0
0
VERTEX
8
Layer 1
10
41.539531
20
4.762509
70
0
0
VERTEX
8
Layer 1
10
38.364535
20
4.762509
70
0
0
VERTEX
8
Layer 1
10
38.364535
20
5.556258
70
0
0
SEQEND
8
Layer 1
0
POLYLINE
8
Layer 1
62
10
70
0
10
0.000000
20
0.000000
66
1
0
VERTEX
8
Layer 1
10
46.302025
20
5.556258
70
0
0
VERTEX
8
Layer 1
10
49.477021
20
5.556258
70
0
0
VERTEX
8
Layer 1
10
49.477021
20
4.762509
70
0
0
VERTEX
8
Layer 1
10
46.302025
20
4.762509
70
0
0
VERTEX
8
Layer 1
10
46.302025
20
5.556258
70
0
0
SEQEND
8
Layer 1
 0 
ENDSEC
 0 
EOF